<?xml version="1.0" encoding="iso-8859-1"?>
<!-- Generator: Adobe Illustrator 18.0.0, SVG Export Plug-In . SVG Version: 6.00 Build 0)  -->
<!DOCTYPE svg PUBLIC "-//W3C//DTD SVG 1.1//EN" "http://www.w3.org/Graphics/SVG/1.1/DTD/svg11.dtd">
<svg version="1.1" id="Capa_1" xmlns="http://www.w3.org/2000/svg" xmlns:xlink="http://www.w3.org/1999/xlink" x="0px" y="0px"
	 viewBox="0 0 297 297" style="enable-background:new 0 0 297 297;" xml:space="preserve">
<g>
	<path d="M10.253,118.52c-1.018,2.5-22.66,63.309,0.168,108.962c5.443,10.886,14.451,18.715,25.367,22.048
		c3.875,1.183,7.893,1.768,11.885,1.768c6.105,0,12.15-1.368,17.527-4.056c13.963-6.982,24.135-24.208,13.475-45.53L58.294,160.95
		c23.604,11.598,55.688,21.995,94.883,21.995c86.758,0,138.689-50.935,140.857-53.103c3.563-3.565,3.965-9.207,0.939-13.239
		c-0.549-0.732-13.721-18.131-37.656-35.538c-31.809-23.135-67.818-35.362-104.141-35.362c-36.32,0-72.332,12.228-104.141,35.361
		c-23.936,17.408-37.111,34.807-37.66,35.539C10.921,117.208,10.529,117.843,10.253,118.52z M153.177,162.056
		c-37.143,0-55.977-13.284-55.977-39.485c0-30.867,25.111-55.978,55.977-55.978c30.865,0,55.977,25.11,55.977,55.978
		C209.154,148.772,190.32,162.056,153.177,162.056z M61.49,97.057C70.833,90.312,80.421,84.66,90.22,80.1
		c-8.211,12.132-13.01,26.752-13.01,42.471c0,10.211,2.037,19.232,5.938,26.981c-23.608-9.147-40.553-20.92-49.418-27.953
		C39.382,115.471,48.802,106.216,61.49,97.057z M24.923,140.496l35.633,70.273c1.572,3.144,3.15,7.749,1.746,11.84
		c-1.178,3.426-4,5.434-6.162,6.514c-7.391,3.695-20.842,2.817-27.601-10.699C15.622,192.593,20.49,159.211,24.923,140.496z
		 M223.163,149.639c3.93-7.768,5.98-16.82,5.98-27.068c0-15.719-4.799-30.338-13.008-42.47c9.797,4.56,19.383,10.211,28.727,16.956
		c12.705,9.171,22.133,18.438,27.779,24.566C263.792,128.679,246.857,140.488,223.163,149.639z"/>
	<circle cx="153.177" cy="122.68" r="16.712"/>
</g>
<g>
</g>
<g>
</g>
<g>
</g>
<g>
</g>
<g>
</g>
<g>
</g>
<g>
</g>
<g>
</g>
<g>
</g>
<g>
</g>
<g>
</g>
<g>
</g>
<g>
</g>
<g>
</g>
<g>
</g>
</svg>
