<?xml version="1.0" encoding="iso-8859-1"?>
<!-- Generator: Adobe Illustrator 18.0.0, SVG Export Plug-In . SVG Version: 6.00 Build 0)  -->
<!DOCTYPE svg PUBLIC "-//W3C//DTD SVG 1.1//EN" "http://www.w3.org/Graphics/SVG/1.1/DTD/svg11.dtd">
<svg version="1.1" id="Capa_1" xmlns="http://www.w3.org/2000/svg" xmlns:xlink="http://www.w3.org/1999/xlink" x="0px" y="0px"
	 viewBox="0 0 297 297" style="enable-background:new 0 0 297 297;" xml:space="preserve">
<path d="M294.908,142.226c-0.566-0.756-14.168-18.72-38.881-36.693c-32.842-23.886-70.023-36.511-107.525-36.511h-0.001
	c-37.501,0-74.682,12.625-107.525,36.51C16.262,123.506,2.658,141.47,2.092,142.226c-2.789,3.718-2.789,8.831,0,12.549
	c0.566,0.756,14.17,18.72,38.884,36.694c32.844,23.885,70.024,36.51,107.525,36.51h0.001c37.502,0,74.684-12.625,107.525-36.511
	c24.713-17.974,38.315-35.938,38.881-36.693C297.697,151.057,297.697,145.943,294.908,142.226z M138.043,90.891v13.972
	c-4.653,1.116-9.029,2.95-12.996,5.394l-9.873-9.872C121.91,95.704,129.669,92.407,138.043,90.891z M69.024,148.541
	c0.008,15.898,4.726,30.708,12.806,43.141c-9.538-4.567-18.878-10.144-27.996-16.725c-13.898-10.032-23.998-20.178-29.681-26.457
	c5.686-6.283,15.785-16.427,29.681-26.457c9.118-6.581,18.458-12.157,27.996-16.725c-8.08,12.433-12.798,27.242-12.806,43.141
	c0,0.015-0.002,0.026-0.002,0.041S69.024,148.526,69.024,148.541z M100.385,181.826c-4.68-6.735-7.976-14.494-9.492-22.868h13.972
	c1.115,4.653,2.95,9.028,5.393,12.996L100.385,181.826z M104.864,138.042H90.893c1.517-8.374,4.813-16.133,9.492-22.868l9.872,9.872
	C107.815,129.012,105.98,133.389,104.864,138.042z M138.043,206.109c-8.374-1.517-16.133-4.814-22.869-9.493l9.872-9.872
	c3.968,2.443,8.344,4.277,12.997,5.394V206.109z M122.532,148.5c0-14.344,11.626-25.97,25.97-25.97
	c14.344,0,25.97,11.626,25.97,25.97c0,14.343-11.626,25.97-25.97,25.97C134.158,174.47,122.532,162.844,122.532,148.5z
	 M158.959,206.109v-13.972c4.653-1.115,9.029-2.95,12.997-5.393l9.872,9.872C175.093,201.297,167.334,204.593,158.959,206.109z
	 M171.956,110.254c-3.968-2.442-8.344-4.276-12.997-5.392V90.891c8.374,1.517,16.133,4.813,22.869,9.491L171.956,110.254z
	 M196.619,181.828l-9.873-9.872c2.443-3.968,4.278-8.345,5.394-12.998h13.972C204.595,167.332,201.299,175.092,196.619,181.828z
	 M192.14,138.042c-1.115-4.654-2.95-9.03-5.394-12.998l9.872-9.872c4.681,6.736,7.977,14.495,9.493,22.87H192.14z M243.167,174.957
	c-9.116,6.581-18.456,12.156-27.992,16.725c8.087-12.443,12.806-27.269,12.806-43.182s-4.719-30.738-12.806-43.181
	c9.536,4.567,18.876,10.143,27.992,16.724c13.898,10.032,23.998,20.178,29.681,26.457
	C267.162,154.783,257.063,164.927,243.167,174.957z"/>
<g>
</g>
<g>
</g>
<g>
</g>
<g>
</g>
<g>
</g>
<g>
</g>
<g>
</g>
<g>
</g>
<g>
</g>
<g>
</g>
<g>
</g>
<g>
</g>
<g>
</g>
<g>
</g>
<g>
</g>
</svg>
