<?xml version="1.0" encoding="iso-8859-1"?>
<!-- Generator: Adobe Illustrator 18.0.0, SVG Export Plug-In . SVG Version: 6.00 Build 0)  -->
<!DOCTYPE svg PUBLIC "-//W3C//DTD SVG 1.1//EN" "http://www.w3.org/Graphics/SVG/1.1/DTD/svg11.dtd">
<svg version="1.1" id="Capa_1" xmlns="http://www.w3.org/2000/svg" xmlns:xlink="http://www.w3.org/1999/xlink" x="0px" y="0px"
	 viewBox="0 0 297 297" style="enable-background:new 0 0 297 297;" xml:space="preserve">
<path d="M294.908,159.48c-0.566-0.756-14.168-18.72-38.881-36.693c-32.842-23.886-70.023-36.511-107.525-36.511
	c-37.501,0-74.683,12.625-107.526,36.511C16.262,140.761,2.658,158.724,2.092,159.48c-1.725,2.299-2.427,5.207-1.941,8.041
	c0.484,2.832,2.115,5.341,4.507,6.936c2.221,1.48,55.419,36.267,143.845,36.267c88.426,0,141.62-34.786,143.841-36.267
	c2.392-1.595,4.022-4.104,4.507-6.936C297.335,164.687,296.633,161.78,294.908,159.48z M198.971,178.252
	c-4.705,0-10.802-1.029-17.86-2.219c-9.673-1.632-20.636-3.481-32.608-3.481c-11.973,0-22.936,1.849-32.61,3.481
	c-7.058,1.189-13.154,2.219-17.859,2.219c-5.389,0-8.094,0-8.094-12.496c0-23.013,13.347-42.958,32.701-52.526
	c-0.007,0.253-0.02,0.505-0.02,0.76c0,14.296,11.587,25.882,25.882,25.882c14.296,0,25.882-11.586,25.882-25.882
	c0-0.255-0.012-0.507-0.02-0.76c19.355,9.568,32.701,29.514,32.701,52.526C207.065,178.25,204.36,178.25,198.971,178.252z
	 M53.834,139.299c9.118-6.582,18.458-12.157,27.996-16.725c-8.088,12.443-12.807,27.267-12.807,43.182
	c0,5.353,0.599,9.879,1.651,13.709c-19.815-5.467-34.724-11.976-43.873-16.568C32.745,156.631,41.886,147.923,53.834,139.299z
	 M226.329,179.465c1.054-3.831,1.651-8.356,1.651-13.709c0-15.914-4.719-30.738-12.805-43.182
	c9.535,4.568,18.875,10.143,27.991,16.725c11.949,8.624,21.09,17.334,27.031,23.598
	C261.045,167.491,246.139,173.998,226.329,179.465z"/>
<g>
</g>
<g>
</g>
<g>
</g>
<g>
</g>
<g>
</g>
<g>
</g>
<g>
</g>
<g>
</g>
<g>
</g>
<g>
</g>
<g>
</g>
<g>
</g>
<g>
</g>
<g>
</g>
<g>
</g>
</svg>
