<?xml version="1.0" encoding="iso-8859-1"?>
<!-- Generator: Adobe Illustrator 18.0.0, SVG Export Plug-In . SVG Version: 6.00 Build 0)  -->
<!DOCTYPE svg PUBLIC "-//W3C//DTD SVG 1.1//EN" "http://www.w3.org/Graphics/SVG/1.1/DTD/svg11.dtd">
<svg version="1.1" id="Capa_1" xmlns="http://www.w3.org/2000/svg" xmlns:xlink="http://www.w3.org/1999/xlink" x="0px" y="0px"
	 viewBox="0 0 297 297" style="enable-background:new 0 0 297 297;" xml:space="preserve">
<g>
	<path d="M285.412,101.34c-15.863-38.074-45.306-58.201-85.144-58.201c-89.578,0-192.853,102.242-197.204,106.594
		c-2.473,2.473-3.547,6.018-2.86,9.447c0.194,0.969,4.93,23.984,21.101,47.084c15.199,21.713,43.619,47.598,92.686,47.598
		c89.578,0,176.299-85.689,179.946-89.338c1.961-1.963,3.064-4.621,3.064-7.395C297,155.987,296.87,128.838,285.412,101.34z
		 M148.5,215.692c-32.292,0-58.563-26.271-58.563-58.563c0-32.293,26.271-58.564,58.563-58.564s58.564,26.271,58.564,58.564
		C207.064,189.42,180.792,215.692,148.5,215.692z M38.844,194.846c-9.549-13.451-14.525-27.145-16.712-34.43
		c9.258-8.717,32.688-29.893,62.25-50.18c-9.646,13.156-15.36,29.365-15.36,46.893c0,35.104,22.886,64.945,54.513,75.439
		c-3.182,0.244-6.364,0.377-9.544,0.377C82.076,232.946,56.792,220.127,38.844,194.846z M216.6,198.061
		c7.218-11.965,11.379-25.971,11.379-40.932c0-43.826-35.654-79.48-79.479-79.48c-2.357,0-4.686,0.125-6.991,0.326
		c19.638-8.422,39.74-13.92,58.759-13.92c30.974,0,53.054,15.08,65.625,44.822c7.506,17.758,9.485,35.904,10.006,43.955
		C267.874,160.317,245.683,180.051,216.6,198.061z"/>
	<path d="M148.499,112.16c-24.794,0-44.967,20.174-44.967,44.969s20.173,44.967,44.969,44.967c24.794,0,44.967-20.172,44.967-44.967
		C193.468,132.332,173.295,112.16,148.499,112.16z M148.501,181.18c-13.264,0-24.053-10.789-24.053-24.051
		c0-13.264,10.791-24.053,24.053-24.053s24.051,10.789,24.051,24.053C172.552,170.391,161.763,181.18,148.501,181.18z"/>
</g>
<g>
</g>
<g>
</g>
<g>
</g>
<g>
</g>
<g>
</g>
<g>
</g>
<g>
</g>
<g>
</g>
<g>
</g>
<g>
</g>
<g>
</g>
<g>
</g>
<g>
</g>
<g>
</g>
<g>
</g>
</svg>
