<?xml version="1.0" encoding="iso-8859-1"?>
<!-- Generator: Adobe Illustrator 18.0.0, SVG Export Plug-In . SVG Version: 6.00 Build 0)  -->
<!DOCTYPE svg PUBLIC "-//W3C//DTD SVG 1.1//EN" "http://www.w3.org/Graphics/SVG/1.1/DTD/svg11.dtd">
<svg version="1.1" id="Capa_1" xmlns="http://www.w3.org/2000/svg" xmlns:xlink="http://www.w3.org/1999/xlink" x="0px" y="0px"
	 viewBox="0 0 297.001 297.001" style="enable-background:new 0 0 297.001 297.001;" xml:space="preserve">
<path d="M296.525,145.382c-0.272-0.871-0.662-1.687-1.138-2.442c-0.129-0.22-0.284-0.456-0.478-0.714
	c-0.566-0.756-14.168-18.72-38.882-36.693c-32.842-23.886-70.022-36.511-107.524-36.511c-37.501,0-74.683,12.625-107.526,36.51
	C16.262,123.506,2.659,141.47,2.092,142.226l0.006,0.005c-0.705,0.94-1.262,2-1.622,3.151c-1.003,3.209-0.401,6.704,1.616,9.393
	c0.566,0.756,14.17,18.72,38.884,36.694c32.844,23.885,70.025,36.51,107.526,36.51c37.502,0,74.683-12.625,107.524-36.511
	c24.714-17.974,38.315-35.938,38.882-36.693C296.926,152.086,297.528,148.591,296.525,145.382z M148.503,89.937
	c33.302,0,65.151,10.802,94.665,32.106c3.614,2.608,6.967,5.225,10.057,7.778c-24.265-4.496-59.868-9.034-104.722-9.034
	c-44.855,0-80.46,4.538-104.726,9.035c3.091-2.555,6.443-5.17,10.058-7.779C83.35,100.739,115.2,89.937,148.503,89.937z
	 M120.894,200.163c-15.598,0-29.594-6.959-39.074-17.924c2.015,0.503,4.12,0.773,6.289,0.773c14.296,0,25.883-11.588,25.883-25.883
	c0-5.247-1.565-10.126-4.247-14.204c11.973-0.763,24.917-1.223,38.758-1.223c8.351,0,16.37,0.17,24.053,0.47v6.328
	C172.555,176.987,149.379,200.163,120.894,200.163z M29.568,154.21c5.106-1.195,11.403-2.54,18.795-3.895
	c0.209,8.476,1.873,16.594,4.761,24.114C43.235,167.221,35.295,159.99,29.568,154.21z M243.168,174.957
	c-24.638,17.785-50.905,28.244-78.285,31.217c17.36-13.273,28.589-34.183,28.589-57.674v-5.145
	c33.589,2.503,58.918,7.335,73.963,10.855C261.566,160.13,253.394,167.575,243.168,174.957z"/>
<g>
</g>
<g>
</g>
<g>
</g>
<g>
</g>
<g>
</g>
<g>
</g>
<g>
</g>
<g>
</g>
<g>
</g>
<g>
</g>
<g>
</g>
<g>
</g>
<g>
</g>
<g>
</g>
<g>
</g>
</svg>
