<?xml version="1.0" encoding="iso-8859-1"?>
<!-- Generator: Adobe Illustrator 18.0.0, SVG Export Plug-In . SVG Version: 6.00 Build 0)  -->
<!DOCTYPE svg PUBLIC "-//W3C//DTD SVG 1.1//EN" "http://www.w3.org/Graphics/SVG/1.1/DTD/svg11.dtd">
<svg version="1.1" id="Capa_1" xmlns="http://www.w3.org/2000/svg" xmlns:xlink="http://www.w3.org/1999/xlink" x="0px" y="0px"
	 viewBox="0 0 297 297" style="enable-background:new 0 0 297 297;" xml:space="preserve">
<path d="M0,96.482v103.783c0,5.775,4.683,10.458,10.458,10.458s10.458-4.683,10.458-10.458v-54.49
	c3.291,5.67,7.022,11.543,11.229,17.431c30.267,42.374,70.502,64.772,116.354,64.772c5.775,0,10.458-4.683,10.458-10.457
	c0-5.775-4.683-10.458-10.458-10.458c-39.187,0-72.493-18.686-98.992-55.535c-2.634-3.662-5.065-7.334-7.309-10.953
	c32.541,23.315,69.266,35.638,106.303,35.638c37.502,0,74.683-12.625,107.524-36.511c24.714-17.974,38.316-35.938,38.883-36.693
	c2.017-2.688,2.618-6.184,1.616-9.393c-1.002-3.209-3.486-5.74-6.676-6.804c-2.179-0.726-54.374-17.791-141.348-17.791
	c-86.974,0-139.171,17.065-141.35,17.791c-3.19,1.063-5.674,3.595-6.676,6.804C0.208,94.475,0.043,95.604,0,96.482z
	 M148.501,150.068c-31.876,0-57.865-25.602-58.531-57.32c12.797-1.258,27.03-2.211,42.588-2.607
	c-0.842,2.032-1.312,4.257-1.312,6.594c0,9.53,7.725,17.255,17.255,17.255c9.53,0,17.256-7.725,17.256-17.255
	c0-2.336-0.471-4.561-1.311-6.592c15.542,0.398,29.778,1.356,42.586,2.62C206.358,124.475,180.372,150.068,148.501,150.068z
	 M29.554,102.43c9.354-2.194,22.698-4.896,39.563-7.226c0.828,17.989,7.668,34.429,18.547,47.369
	c-11.567-5.001-22.86-11.464-33.829-19.382C43.597,115.802,35.422,108.352,29.554,102.43z M243.167,123.191
	c-10.969,7.918-22.261,14.381-33.828,19.382c10.875-12.935,17.714-29.368,18.547-47.349c16.837,2.33,30.186,5.029,39.548,7.22
	C261.565,108.365,253.394,115.809,243.167,123.191z"/>
<g>
</g>
<g>
</g>
<g>
</g>
<g>
</g>
<g>
</g>
<g>
</g>
<g>
</g>
<g>
</g>
<g>
</g>
<g>
</g>
<g>
</g>
<g>
</g>
<g>
</g>
<g>
</g>
<g>
</g>
</svg>
